<?xml version="1.0" encoding="UTF-8"?>
<!DOCTYPE svg PUBLIC "-//W3C//DTD SVG 1.1//EN" "http://www.w3.org/Graphics/SVG/1.1/DTD/svg11.dtd">
<!-- Creator: CorelDRAW 2020 (64-Bit) -->
<svg xmlns="http://www.w3.org/2000/svg" xml:space="preserve" width="52.773mm" height="26.9491mm" version="1.1" style="shape-rendering:geometricPrecision; text-rendering:geometricPrecision; image-rendering:optimizeQuality; fill-rule:evenodd; clip-rule:evenodd"
viewBox="0 0 2930.48 1496.48"
 xmlns:xlink="http://www.w3.org/1999/xlink"
 xmlns:xodm="http://www.corel.com/coreldraw/odm/2003">
 <defs>
  <style type="text/css">
   <![CDATA[
    .str0 {stroke:#183E6D;stroke-width:4.23;stroke-miterlimit:22.9256}
    .fil1 {fill:none;fill-rule:nonzero}
    .fil3 {fill:#FEFEFE}
    .fil2 {fill:#183E6D}
    .fil0 {fill:#183E6D;fill-rule:nonzero}
   ]]>
  </style>
 </defs>
 <g id="Слой_x0020_1">
  <metadata id="CorelCorpID_0Corel-Layer"/>
  <polygon class="fil0" points="42.67,671.27 261.98,671.27 345.52,998.66 429.32,671.27 647.62,671.27 647.62,1209.33 511.6,1209.33 511.6,799.14 406.65,1209.33 283.4,1209.33 178.7,799.14 178.7,1209.33 42.67,1209.33 "/>
  <path id="1" class="fil0" d="M1003.23 1120.66l-188.37 0 -27.05 88.68 -169.71 0 202.53 -538.06 181.98 0 201.65 538.06 -174.1 0 -26.93 -88.68zm-35.19 -116.48l-58.74 -193.38 -59 193.38 117.73 0z"/>
  <path id="2" class="fil0" d="M1177.73 1209.33l0 -538.06 277.05 0c51.35,0 90.68,4.38 117.73,13.28 27.18,8.76 49.1,25.17 65.76,48.97 16.66,23.92 24.92,53.1 24.92,87.42 0,29.81 -6.39,55.61 -19.16,77.28 -12.65,21.8 -30.18,39.33 -52.6,52.86 -14.15,8.51 -33.69,15.65 -58.36,21.29 19.79,6.64 34.19,13.15 43.21,19.79 6.01,4.38 14.9,13.9 26.55,28.3 11.52,14.4 19.29,25.55 23.17,33.44l80.78 155.43 -187.87 0 -88.8 -164.07c-11.27,-21.29 -21.29,-35.07 -30.06,-41.46 -12.02,-8.26 -25.68,-12.4 -40.83,-12.4l-14.65 0 0 217.93 -166.83 0zm166.83 -319.38l70.27 0c7.51,0 22.29,-2.5 44.09,-7.39 11.02,-2.13 20.04,-7.76 26.93,-16.91 7.01,-9.14 10.52,-19.54 10.52,-31.31 0,-17.41 -5.51,-30.81 -16.53,-40.08 -11.02,-9.4 -31.69,-14.03 -62.13,-14.03l-73.14 0 0 109.72z"/>
  <polygon id="3" class="fil0" points="1685.51,671.27 1852.34,671.27 1852.34,1209.33 1685.51,1209.33 "/>
  <polygon id="4" class="fil0" points="1891.45,671.27 2046.63,671.27 2248.41,968.35 2248.41,671.27 2405.46,671.27 2405.46,1209.33 2248.41,1209.33 2047.76,913.87 2047.76,1209.33 1891.45,1209.33 "/>
  <polygon id="5" class="fil0" points="2434.68,671.27 2879.56,671.27 2879.56,786.24 2601.51,786.24 2601.51,871.91 2859.27,871.91 2859.27,981.63 2601.51,981.63 2601.51,1087.59 2887.82,1087.59 2887.82,1209.33 2434.68,1209.33 "/>
  <polygon id="6" class="fil1 str0" points="42.67,671.27 261.98,671.27 345.52,998.66 429.32,671.27 647.62,671.27 647.62,1209.33 511.6,1209.33 511.6,799.14 406.65,1209.33 283.4,1209.33 178.7,799.14 178.7,1209.33 42.67,1209.33 "/>
  <path id="7" class="fil1 str0" d="M1003.23 1120.66l-188.37 0 -27.05 88.68 -169.71 0 202.53 -538.06 181.98 0 201.65 538.06 -174.1 0 -26.93 -88.68zm-35.19 -116.48l-58.74 -193.38 -59 193.38 117.73 0z"/>
  <path id="8" class="fil1 str0" d="M1177.73 1209.33l0 -538.06 277.05 0c51.35,0 90.68,4.38 117.73,13.28 27.18,8.76 49.1,25.17 65.76,48.97 16.66,23.92 24.92,53.1 24.92,87.42 0,29.81 -6.39,55.61 -19.16,77.28 -12.65,21.8 -30.18,39.33 -52.6,52.86 -14.15,8.51 -33.69,15.65 -58.36,21.29 19.79,6.64 34.19,13.15 43.21,19.79 6.01,4.38 14.9,13.9 26.55,28.3 11.52,14.4 19.29,25.55 23.17,33.44l80.78 155.43 -187.87 0 -88.8 -164.07c-11.27,-21.29 -21.29,-35.07 -30.06,-41.46 -12.02,-8.26 -25.68,-12.4 -40.83,-12.4l-14.65 0 0 217.93 -166.83 0zm166.83 -319.38l70.27 0c7.51,0 22.29,-2.5 44.09,-7.39 11.02,-2.13 20.04,-7.76 26.93,-16.91 7.01,-9.14 10.52,-19.54 10.52,-31.31 0,-17.41 -5.51,-30.81 -16.53,-40.08 -11.02,-9.4 -31.69,-14.03 -62.13,-14.03l-73.14 0 0 109.72z"/>
  <polygon id="9" class="fil1 str0" points="1685.51,671.27 1852.34,671.27 1852.34,1209.33 1685.51,1209.33 "/>
  <polygon id="10" class="fil1 str0" points="1891.45,671.27 2046.63,671.27 2248.41,968.35 2248.41,671.27 2405.46,671.27 2405.46,1209.33 2248.41,1209.33 2047.76,913.87 2047.76,1209.33 1891.45,1209.33 "/>
  <polygon id="11" class="fil1 str0" points="2434.68,671.27 2879.56,671.27 2879.56,786.24 2601.51,786.24 2601.51,871.91 2859.27,871.91 2859.27,981.63 2601.51,981.63 2601.51,1087.59 2887.82,1087.59 2887.82,1209.33 2434.68,1209.33 "/>
  <path class="fil0" d="M882.24 1393.07l0 -55.69 127.83 0 0 113.81c-24.48,16.69 -46.1,28.09 -64.85,34.13 -18.81,6.04 -41.11,9.03 -66.9,9.03 -31.77,0 -57.68,-5.42 -77.68,-16.26 -20,-10.78 -35.51,-26.91 -46.53,-48.34 -11.03,-21.37 -16.51,-45.97 -16.51,-73.69 0,-29.22 6.04,-54.57 18.06,-76.19 12.02,-21.55 29.65,-37.94 52.89,-49.15 18.13,-8.66 42.55,-12.96 73.2,-12.96 29.53,0 51.64,2.68 66.28,8.04 14.7,5.36 26.85,13.64 36.5,24.92 9.66,11.28 16.95,25.54 21.81,42.8l-79.61 14.33c-3.3,-10.16 -8.85,-17.94 -16.69,-23.3 -7.85,-5.41 -17.82,-8.1 -30.03,-8.1 -18.07,0 -32.52,6.29 -43.3,18.87 -10.78,12.58 -16.13,32.52 -16.13,59.74 0,28.9 5.42,49.59 16.32,61.98 10.84,12.4 26.04,18.62 45.47,18.62 9.22,0 18,-1.3 26.41,-3.99 8.35,-2.68 17.94,-7.22 28.78,-13.58l0 -25.04 -55.32 0z"/>
  <path id="1" class="fil0" d="M1060.15 1489.88l0 -267.62 137.8 0c25.54,0 45.1,2.18 58.56,6.61 13.52,4.36 24.42,12.52 32.7,24.36 8.29,11.89 12.39,26.41 12.39,43.48 0,14.83 -3.18,27.66 -9.53,38.43 -6.29,10.84 -15.02,19.56 -26.17,26.29 -7.04,4.24 -16.75,7.79 -29.03,10.6 9.84,3.3 17,6.54 21.49,9.84 2.99,2.18 7.41,6.91 13.21,14.08 5.73,7.16 9.6,12.71 11.53,16.63l40.18 77.31 -93.44 0 -44.16 -81.61c-5.61,-10.59 -10.59,-17.44 -14.95,-20.62 -5.98,-4.11 -12.77,-6.16 -20.31,-6.16l-7.29 0 0 108.39 -82.98 0zm82.98 -158.85l34.94 0c3.74,0 11.09,-1.24 21.93,-3.68 5.48,-1.06 9.97,-3.86 13.39,-8.41 3.49,-4.55 5.23,-9.72 5.23,-15.58 0,-8.66 -2.74,-15.32 -8.22,-19.93 -5.48,-4.68 -15.76,-6.98 -30.9,-6.98l-36.38 0 0 54.57z"/>
  <path id="2" class="fil0" d="M1332.87 1356.26c0,-43.66 12.14,-77.68 36.51,-101.97 24.36,-24.36 58.24,-36.51 101.73,-36.51 44.54,0 78.86,11.96 102.97,35.82 24.11,23.92 36.13,57.43 36.13,100.48 0,31.27 -5.23,56.87 -15.76,76.87 -10.53,20 -25.79,35.57 -45.66,46.72 -19.93,11.15 -44.72,16.7 -74.44,16.7 -30.15,0 -55.13,-4.8 -74.94,-14.39 -19.75,-9.65 -35.82,-24.86 -48.09,-45.66 -12.27,-20.75 -18.44,-46.78 -18.44,-78.06zm82.6 0.19c0,26.97 5.05,46.41 15.08,58.18 10.09,11.77 23.79,17.69 41.11,17.69 17.75,0 31.58,-5.8 41.3,-17.32 9.78,-11.59 14.64,-32.27 14.64,-62.23 0,-25.17 -5.11,-43.54 -15.26,-55.13 -10.22,-11.65 -23.98,-17.44 -41.43,-17.44 -16.69,0 -30.15,5.92 -40.24,17.69 -10.15,11.77 -15.2,31.34 -15.2,58.56z"/>
  <path id="3" class="fil0" d="M1828.86 1222.26l82.6 0 0 159.41c0,15.76 -2.49,30.71 -7.41,44.73 -4.92,14.08 -12.64,26.35 -23.17,36.88 -10.53,10.53 -21.55,17.88 -33.08,22.18 -16.07,5.91 -35.38,8.91 -57.87,8.91 -13.02,0 -27.23,-0.94 -42.61,-2.74 -15.39,-1.8 -28.28,-5.42 -38.63,-10.84 -10.34,-5.42 -19.81,-13.08 -28.34,-23.04 -8.6,-9.97 -14.45,-20.25 -17.63,-30.84 -5.11,-17.01 -7.66,-32.09 -7.66,-45.23l0 -159.41 82.6 0 0 163.21c0,14.58 4.05,25.98 12.08,34.13 8.1,8.22 19.31,12.33 33.64,12.33 14.14,0 25.29,-4.05 33.39,-12.14 8.04,-8.04 12.08,-19.5 12.08,-34.32l0 -163.21z"/>
  <path id="4" class="fil0" d="M1965.65 1222.26l137.55 0c29.96,0 52.39,7.1 67.34,21.37 14.89,14.27 22.36,34.57 22.36,60.92 0,27.04 -8.16,48.22 -24.42,63.42 -16.26,15.27 -41.11,22.86 -74.5,22.86l-45.35 0 0 99.05 -82.98 0 0 -267.62zm82.98 114.38l20.37 0c16.07,0 27.35,-2.8 33.82,-8.35 6.48,-5.55 9.72,-12.65 9.72,-21.31 0,-8.41 -2.8,-15.51 -8.47,-21.37 -5.61,-5.85 -16.2,-8.78 -31.77,-8.78l-23.67 0 0 59.81z"/>
  <path id="5" class="fil1 str0" d="M882.24 1393.07l0 -55.69 127.83 0 0 113.81c-24.48,16.69 -46.1,28.09 -64.85,34.13 -18.81,6.04 -41.11,9.03 -66.9,9.03 -31.77,0 -57.68,-5.42 -77.68,-16.26 -20,-10.78 -35.51,-26.91 -46.53,-48.34 -11.03,-21.37 -16.51,-45.97 -16.51,-73.69 0,-29.22 6.04,-54.57 18.06,-76.19 12.02,-21.55 29.65,-37.94 52.89,-49.15 18.13,-8.66 42.55,-12.96 73.2,-12.96 29.53,0 51.64,2.68 66.28,8.04 14.7,5.36 26.85,13.64 36.5,24.92 9.66,11.28 16.95,25.54 21.81,42.8l-79.61 14.33c-3.3,-10.16 -8.85,-17.94 -16.69,-23.3 -7.85,-5.41 -17.82,-8.1 -30.03,-8.1 -18.07,0 -32.52,6.29 -43.3,18.87 -10.78,12.58 -16.13,32.52 -16.13,59.74 0,28.9 5.42,49.59 16.32,61.98 10.84,12.4 26.04,18.62 45.47,18.62 9.22,0 18,-1.3 26.41,-3.99 8.35,-2.68 17.94,-7.22 28.78,-13.58l0 -25.04 -55.32 0z"/>
  <path id="6" class="fil1 str0" d="M1060.15 1489.88l0 -267.62 137.8 0c25.54,0 45.1,2.18 58.56,6.61 13.52,4.36 24.42,12.52 32.7,24.36 8.29,11.89 12.39,26.41 12.39,43.48 0,14.83 -3.18,27.66 -9.53,38.43 -6.29,10.84 -15.02,19.56 -26.17,26.29 -7.04,4.24 -16.75,7.79 -29.03,10.6 9.84,3.3 17,6.54 21.49,9.84 2.99,2.18 7.41,6.91 13.21,14.08 5.73,7.16 9.6,12.71 11.53,16.63l40.18 77.31 -93.44 0 -44.16 -81.61c-5.61,-10.59 -10.59,-17.44 -14.95,-20.62 -5.98,-4.11 -12.77,-6.16 -20.31,-6.16l-7.29 0 0 108.39 -82.98 0zm82.98 -158.85l34.94 0c3.74,0 11.09,-1.24 21.93,-3.68 5.48,-1.06 9.97,-3.86 13.39,-8.41 3.49,-4.55 5.23,-9.72 5.23,-15.58 0,-8.66 -2.74,-15.32 -8.22,-19.93 -5.48,-4.68 -15.76,-6.98 -30.9,-6.98l-36.38 0 0 54.57z"/>
  <path id="7" class="fil1 str0" d="M1332.87 1356.26c0,-43.66 12.14,-77.68 36.51,-101.97 24.36,-24.36 58.24,-36.51 101.73,-36.51 44.54,0 78.86,11.96 102.97,35.82 24.11,23.92 36.13,57.43 36.13,100.48 0,31.27 -5.23,56.87 -15.76,76.87 -10.53,20 -25.79,35.57 -45.66,46.72 -19.93,11.15 -44.72,16.7 -74.44,16.7 -30.15,0 -55.13,-4.8 -74.94,-14.39 -19.75,-9.65 -35.82,-24.86 -48.09,-45.66 -12.27,-20.75 -18.44,-46.78 -18.44,-78.06zm82.6 0.19c0,26.97 5.05,46.41 15.08,58.18 10.09,11.77 23.79,17.69 41.11,17.69 17.75,0 31.58,-5.8 41.3,-17.32 9.78,-11.59 14.64,-32.27 14.64,-62.23 0,-25.17 -5.11,-43.54 -15.26,-55.13 -10.22,-11.65 -23.98,-17.44 -41.43,-17.44 -16.69,0 -30.15,5.92 -40.24,17.69 -10.15,11.77 -15.2,31.34 -15.2,58.56z"/>
  <path id="8" class="fil1 str0" d="M1828.86 1222.26l82.6 0 0 159.41c0,15.76 -2.49,30.71 -7.41,44.73 -4.92,14.08 -12.64,26.35 -23.17,36.88 -10.53,10.53 -21.55,17.88 -33.08,22.18 -16.07,5.91 -35.38,8.91 -57.87,8.91 -13.02,0 -27.23,-0.94 -42.61,-2.74 -15.39,-1.8 -28.28,-5.42 -38.63,-10.84 -10.34,-5.42 -19.81,-13.08 -28.34,-23.04 -8.6,-9.97 -14.45,-20.25 -17.63,-30.84 -5.11,-17.01 -7.66,-32.09 -7.66,-45.23l0 -159.41 82.6 0 0 163.21c0,14.58 4.05,25.98 12.08,34.13 8.1,8.22 19.31,12.33 33.64,12.33 14.14,0 25.29,-4.05 33.39,-12.14 8.04,-8.04 12.08,-19.5 12.08,-34.32l0 -163.21z"/>
  <path id="9" class="fil1 str0" d="M1965.65 1222.26l137.55 0c29.96,0 52.39,7.1 67.34,21.37 14.89,14.27 22.36,34.57 22.36,60.92 0,27.04 -8.16,48.22 -24.42,63.42 -16.26,15.27 -41.11,22.86 -74.5,22.86l-45.35 0 0 99.05 -82.98 0 0 -267.62zm82.98 114.38l20.37 0c16.07,0 27.35,-2.8 33.82,-8.35 6.48,-5.55 9.72,-12.65 9.72,-21.31 0,-8.41 -2.8,-15.51 -8.47,-21.37 -5.61,-5.85 -16.2,-8.78 -31.77,-8.78l-23.67 0 0 59.81z"/>
  <g id="_811514656">
   <path class="fil2" d="M1316.15 0l-219.47 329.68 -219.02 329.01 219.24 0 112.06 -168.78 193.58 0 0 -160.23 -87.19 0 218.88 -329.68 -218.08 0zm159.54 489.91l-48.7 0 0 -160.23 154.48 0 0 0.91 -105.78 159.33z"/>
   <polygon class="fil2" points="1728.08,160.23 1615.28,329.68 1396.26,658.69 1599.34,658.69 1615.5,658.69 1822.04,658.69 1927.83,499.36 1927.83,498.46 1721.88,498.46 2052.83,0 1851.44,0 1834.74,0 1628.74,0 1522.95,159.33 1522.95,160.23 "/>
  </g>
  <path class="fil2" d="M0.02 569.51c49.2,179.3 232.43,214.35 364.84,99.89 49.04,42.36 113.43,86.46 183.67,86.46 70.24,0 134.18,-43.9 183.13,-85.99 48.96,42.09 112.89,85.99 183.13,85.99 70.25,0 134.64,-44.1 183.67,-86.46 49.03,42.36 113.42,86.46 183.65,86.46 70.24,0 134.17,-43.9 183.13,-85.99 48.97,42.09 112.9,85.99 183.13,85.99 70.23,0 134.63,-44.1 183.66,-86.46 49.03,42.36 113.42,86.46 183.67,86.46 70.25,0 134.17,-43.9 183.13,-85.99 48.96,42.09 112.89,85.99 183.13,85.99 70.25,0 134.63,-44.1 183.67,-86.46 132.42,114.45 315.64,79.4 364.85,-99.89l0 0c-52.86,21.81 -113.64,49.2 -181.19,49.2 -67.57,0 -132.66,-27.46 -185.61,-49.42 -52.96,21.96 -114.17,49.42 -181.71,49.42 -67.55,0 -132.23,-27.39 -185.09,-49.2 -52.85,21.81 -113.63,49.2 -181.18,49.2 -67.55,0 -132.64,-27.46 -185.61,-49.42 -52.97,21.96 -114.16,49.42 -181.72,49.42 -67.55,0 -130.28,-27.39 -183.13,-49.2 -52.85,21.81 -115.58,49.2 -183.13,49.2 -67.55,0 -128.75,-27.46 -181.71,-49.42 -52.97,21.96 -118.06,49.42 -185.61,49.42 -67.55,0 -128.32,-27.39 -181.18,-49.2 -52.85,21.81 -117.53,49.2 -185.08,49.2 -67.54,0 -128.76,-27.46 -181.72,-49.42 -52.96,21.96 -118.05,49.42 -185.61,49.42 -67.55,0 -128.33,-27.39 -181.19,-49.2l0 0z"/>
  <path class="fil3" d="M-0 602.83c49.2,179.3 232.43,214.35 364.84,99.89 49.04,42.36 113.43,86.46 183.67,86.46 70.24,0 134.18,-43.9 183.13,-85.99 48.96,42.09 112.89,85.99 183.13,85.99 70.25,0 134.64,-44.1 183.67,-86.46 49.03,42.36 113.42,86.46 183.65,86.46 70.24,0 134.17,-43.9 183.13,-85.99 48.97,42.09 112.9,85.99 183.13,85.99 70.23,0 134.63,-44.1 183.66,-86.46 49.03,42.36 113.42,86.46 183.67,86.46 70.25,0 134.17,-43.9 183.13,-85.99 48.96,42.09 112.89,85.99 183.13,85.99 70.25,0 134.63,-44.1 183.67,-86.46 132.42,114.45 315.64,79.4 364.85,-99.89l0 0c-52.86,21.81 -113.64,49.2 -181.19,49.2 -67.57,0 -132.66,-27.46 -185.61,-49.42 -52.96,21.96 -114.17,49.42 -181.71,49.42 -67.55,0 -132.23,-27.39 -185.09,-49.2 -52.85,21.81 -113.63,49.2 -181.18,49.2 -67.55,0 -132.64,-27.46 -185.61,-49.42 -52.97,21.96 -114.16,49.42 -181.72,49.42 -67.55,0 -130.28,-27.39 -183.13,-49.2 -52.85,21.81 -115.58,49.2 -183.13,49.2 -67.55,0 -128.75,-27.46 -181.71,-49.42 -52.97,21.96 -118.06,49.42 -185.61,49.42 -67.55,0 -128.32,-27.39 -181.18,-49.2 -52.85,21.81 -117.53,49.2 -185.08,49.2 -67.54,0 -128.76,-27.46 -181.72,-49.42 -52.96,21.96 -118.05,49.42 -185.61,49.42 -67.55,0 -128.33,-27.39 -181.19,-49.2l0 0z"/>
 </g>
</svg>
