<?xml version="1.0" encoding="UTF-8"?>
<!DOCTYPE svg PUBLIC "-//W3C//DTD SVG 1.1//EN" "http://www.w3.org/Graphics/SVG/1.1/DTD/svg11.dtd">
<!-- Creator: CorelDRAW 2021.5 -->
<svg xmlns="http://www.w3.org/2000/svg" xml:space="preserve" width="94.088mm" height="22.6124mm" version="1.1" style="shape-rendering:geometricPrecision; text-rendering:geometricPrecision; image-rendering:optimizeQuality; fill-rule:evenodd; clip-rule:evenodd"
viewBox="0 0 16272.65 3910.85"
 xmlns:xlink="http://www.w3.org/1999/xlink"
 xmlns:xodm="http://www.corel.com/coreldraw/odm/2003">
 <defs>
  <style type="text/css">
   <![CDATA[
    .fil0 {fill:#065E88}
    .fil1 {fill:#065E88;fill-rule:nonzero}
   ]]>
  </style>
 </defs>
 <g id="Слой_x0020_1">
  <metadata id="CorelCorpID_0Corel-Layer"/>
  <g id="_1884048368176">
   <g>
    <polygon class="fil0" points="3387.41,1431.99 3910.85,1955.42 1960.01,3906.25 2400.31,2441.28 1516.92,2441.28 1957.88,3908.37 1955.42,3910.85 494.81,2450.24 1516.91,2441.28 "/>
    <polygon class="fil0" points="1955.42,0 3380.15,1424.72 2397.11,1424.72 "/>
    <polygon class="fil0" points="-0,1955.42 1955.42,0 1513.71,1424.72 2391.26,1424.72 494.54,2449.96 "/>
   </g>
   <g>
    <path class="fil1" d="M4939.15 1616.16l121.76 -254.05 409.98 0 121.34 254.05 -653.08 0zm555.9 -921.87l573.44 1140.91 -371.66 0 -430.58 -901.58 -432.08 901.58 -371.64 0 573.44 -1140.91 459.08 0zm486.67 486.79l442.27 0 0 244.92 -442.27 0 0 -244.92zm458.08 654.12l0 -228.17 750.32 -666.3 -745.27 0 0 -247.96 1207.41 0 0 228.19 -757.23 666.28 762.28 0 0 247.96 -1217.51 0zm3519.99 -1140.91l0 1140.91 -331.29 0 0 -865.86 -413.67 865.86 -353.15 0 -413.68 -860.3 0 860.3 -331.29 0 0 -1140.91 538.12 0 384.85 833.45 381.98 -833.45 538.12 0zm533.47 921.87l121.76 -254.05 410 0 121.33 254.05 -653.08 0zm555.9 -921.87l573.44 1140.91 -371.64 0 -430.6 -901.58 0 0 -432.08 901.58 -371.66 0 573.46 -1140.91 459.08 0zm978.37 498.96l351.47 0c56.05,0 99.78,-11.67 131.17,-34.99 31.37,-23.31 47.08,-55.78 47.08,-97.35 0,-42.6 -15.69,-75.3 -47.08,-98.13 -31.39,-22.81 -75.11,-34.23 -131.17,-34.23l-351.47 0 0 906.65 -348.1 0 0 -1140.91 748.33 0c96.42,0 180.51,15.48 252.25,46.4 71.76,30.94 127.81,73.54 168.18,127.78 40.35,54.25 60.53,118.4 60.53,192.44 0,72 -20.18,135.39 -60.53,190.14 -40.37,54.77 -96.42,97.37 -168.18,127.79 -71.74,30.42 -155.83,45.64 -252.25,45.64l-400.23 0 0 -231.24zm182.39 231.24l380.22 -16.91 362.3 427.62 -403.6 0 -338.92 -410.71zm836.34 -730.2l348.1 0 0 1140.91 -348.1 0 0 -1140.91zm1582.09 782.4l0 -782.4 338 0 0 1140.91 -438.9 0 -622.21 -802.03 0 802.03 -338.02 0 0 -1140.91 450.69 0 610.43 782.4zm1588.8 -326.03l0 228.19 -706.64 0 20.53 -114.1 -20.51 -114.1 706.63 0zm-686.12 114.1l-56.66 314.89 798.27 0 0 255.55 -1172.11 0 95.85 -570.45 -95.85 -570.46 1163.69 0 0 255.57 -789.85 0 56.66 314.89z"/>
    <path class="fil0" d="M5298.02 1993.4c-133.73,121.95 -277.69,182.91 -422.11,182.91 -12.05,0 -24.11,-0.43 -36.15,-1.28l-64.82 -8.7 -0.12 -0.02 -0.35 -0.07c-101.14,-20.15 -200.88,-70.5 -295.85,-151.04l0 92.32 0 1110.52 11777.91 0 0 -1117.42 0 -8.44 0 -83.88c-129.09,112.3 -267.23,168.45 -405.83,168.45 -144.41,0 -288.36,-60.98 -422.07,-182.91 -133.71,121.93 -277.67,182.91 -422.11,182.91 -144.43,0 -288.36,-60.98 -422.07,-182.91 -133.73,121.93 -277.67,182.91 -422.11,182.91 -144.41,0 -288.36,-60.98 -422.09,-182.91 -133.71,121.93 -277.66,182.91 -422.07,182.91 -144.43,0 -288.4,-60.98 -422.11,-182.91 -133.71,121.93 -277.66,182.91 -422.07,182.91 -144.43,0 -288.38,-60.98 -422.11,-182.91 -133.71,121.93 -277.66,182.91 -422.07,182.91 -144.43,0 -288.38,-60.98 -422.09,-182.91 -8.41,7.64 -16.83,15.06 -25.3,22.24l0 -0.88c-126.65,107.4 -261.76,161.1 -397.3,161.1 -133.14,0 -265.9,-51.82 -390.58,-155.45l-0.26 -0.22 -5.95 -5c-8.47,-7.16 -16.91,-14.6 -25.3,-22.24 -133.71,121.95 -277.67,182.91 -422.09,182.91 -144.41,0 -288.38,-60.97 -422.09,-182.91 -133.71,121.95 -277.66,182.91 -422.09,182.91 -144.43,0 -288.38,-60.98 -422.09,-182.91 -133.71,121.95 -277.67,182.91 -422.09,182.91 -144.43,0 -288.38,-60.97 -422.09,-182.91 -133.71,121.95 -277.67,182.91 -422.09,182.91 -144.41,0 -288.38,-60.97 -422.09,-182.91 -133.73,121.95 -277.66,182.91 -422.09,182.91 -144.41,0 -288.38,-60.97 -422.09,-182.91 -133.73,121.95 -277.66,182.91 -422.07,182.91 -144.43,0 -288.4,-60.97 -422.09,-182.91zm4928.27 659.1l209.17 0c39.04,0 69.94,-8.89 92.72,-26.63 22.78,-17.74 34.18,-41.99 34.18,-72.74 0,-31.36 -11.4,-55.76 -34.18,-73.21 -22.78,-17.45 -53.68,-26.18 -92.72,-26.18l-235.13 0 0 198.77 25.96 0zm-25.96 99.38l0 266.19 -117.14 0 0 -665.5 362.92 0c46.73,0 87.69,8.46 122.88,25.3 35.2,16.86 62.71,40.23 82.53,70.1 19.8,29.87 29.71,64.93 29.71,105.15 0,39.04 -9.91,73.49 -29.71,103.37 -19.82,29.85 -47.34,53.22 -82.53,70.08 -28.69,13.77 -61.24,21.9 -97.61,24.44l226.72 267.05 -140.19 0 -223.71 -266.19 -107.9 0 -25.96 0zm2200.51 49.69l118.9 0c3.55,26.62 14.65,49.98 33.28,70.08 18.64,20.11 43.32,35.66 74.09,46.59 30.77,10.95 66.26,16.43 106.49,16.43 59.74,0 107.07,-9.34 141.96,-27.97 34.9,-18.63 52.37,-43.91 52.37,-75.86 0,-26.03 -10.07,-45.56 -30.18,-58.56 -20.11,-13.02 -56.5,-22.78 -109.13,-29.28l-143.76 -18.64c-80.46,-10.64 -138.86,-30.61 -175.25,-59.89 -36.37,-29.28 -54.57,-70.84 -54.57,-124.66 0,-40.82 12.28,-76.17 36.82,-106.04 24.56,-29.87 59.31,-52.94 104.27,-69.2 44.95,-16.29 97.6,-24.4 157.94,-24.4 59.74,0 112.68,8.86 158.82,26.6 46.14,17.76 82.96,42.46 110.48,74.11 27.52,31.65 42.44,68.77 44.79,111.36l-118.89 0c-2.96,-23.68 -12.87,-44.09 -29.73,-61.22 -16.86,-17.17 -39.48,-30.63 -67.88,-40.38 -28.4,-9.75 -61.81,-14.65 -100.26,-14.65 -54.41,0 -97.89,8.89 -130.44,26.63 -32.53,17.74 -48.79,41.99 -48.79,72.74 0,23.68 9.6,41.85 28.83,54.58 19.21,12.71 52.78,22.33 100.71,28.83l145.52 20.41c59.74,8.28 106.92,19.37 141.53,33.28 34.61,13.89 59.31,32.53 74.09,55.92 14.79,23.35 22.17,53.37 22.17,90.06 0,42.58 -13.01,79.85 -39.04,111.8 -26.03,31.94 -62.56,56.64 -109.58,74.09 -47.03,17.43 -101.89,26.17 -164.6,26.17 -63.89,0 -120.24,-9.62 -169.04,-28.83 -48.79,-19.21 -87.39,-45.99 -115.79,-80.3 -28.4,-34.31 -43.77,-74.25 -46.14,-119.79zm-795.46 -346.06l0 562.56 -117.12 0 0 -562.56 -275.08 0 0 -102.94 667.26 0 0 102.94 -275.06 0zm-2293.11 409.95l-392.48 0 -71.29 152.61 -125.11 0 319.42 -665.5 146.42 0 319.44 665.5 -125.11 0 -71.29 -152.61zm-347.29 -96.71l302.09 0 -151.04 -323.35 -151.06 323.35zm-922.61 -416.17c49.69,0 92.72,8.89 129.11,26.63 36.37,17.74 64.48,42.44 84.3,74.09 19.82,31.63 29.73,68.18 29.73,109.58 0,41.4 -9.91,77.93 -29.73,109.58 -19.82,31.65 -47.92,56.35 -84.3,74.09 -36.37,17.73 -79.44,26.62 -129.11,26.62l-211.8 0 -23.33 0 0 244.9 -117.14 0 0 -665.5 352.27 0zm-211.8 319.44l207.37 0c40.23,0 71.74,-9.77 94.48,-29.28 22.78,-19.51 34.18,-46.14 34.18,-79.85 0,-33.73 -11.4,-60.36 -34.18,-79.87 -22.74,-19.51 -54.27,-29.28 -94.48,-29.28l-230.7 0 0 218.28 23.33 0zm-1688.99 -585.56l0.59 -0.52 1.38 1.21 -1.97 -0.69zm4220.91 -0.05l0.55 -0.47 1.19 1.06 -1.75 -0.59zm1688.89 0.43l0.52 -0.45 1.11 0.97 -1.63 -0.52zm3376.7 0.02l0.54 -0.47 1.14 1 -1.68 -0.54z"/>
   </g>
  </g>
 </g>
</svg>
