<?xml version="1.0" encoding="UTF-8"?>
<!DOCTYPE svg PUBLIC "-//W3C//DTD SVG 1.1//EN" "http://www.w3.org/Graphics/SVG/1.1/DTD/svg11.dtd">
<!-- Creator: CorelDRAW 2021.5 -->
<svg xmlns="http://www.w3.org/2000/svg" xml:space="preserve" width="250px" height="140px" version="1.1" style="shape-rendering:geometricPrecision; text-rendering:geometricPrecision; image-rendering:optimizeQuality; fill-rule:evenodd; clip-rule:evenodd"
viewBox="0 0 46.29 25.95"
 xmlns:xlink="http://www.w3.org/1999/xlink"
 xmlns:xodm="http://www.corel.com/coreldraw/odm/2003">
 <defs>
  <style type="text/css">
   <![CDATA[
    .fil0 {fill:#183E6D}
   ]]>
  </style>
 </defs>
 <g id="Слой_x0020_1">
  <metadata id="CorelCorpID_0Corel-Layer"/>
  <g id="_2195765370624">
   <path class="fil0" d="M17.27 0l-8.64 12.99 -8.63 12.96 8.64 0 4.41 -6.65 7.63 0 0 -6.31 -3.44 0 8.62 -12.99 -8.59 0zm6.29 19.3l-1.92 0 0 -6.31 6.09 0 0 0.03 -4.17 6.28z"/>
   <polygon class="fil0" points="33.5,6.31 29.06,12.99 20.43,25.95 28.43,25.95 29.07,25.95 37.2,25.95 41.37,19.67 41.37,19.64 33.26,19.64 46.29,0 38.36,0 37.7,0 29.59,0 25.42,6.28 25.42,6.31 "/>
  </g>
 </g>
</svg>
